<svg width="25" height="24" viewBox="0 0 25 24" fill="none" xmlns="http://www.w3.org/2000/svg">
<path d="M20.2 3H17.95V2.25C17.95 2.05109 17.871 1.86032 17.7303 1.71967C17.5897 1.57902 17.3989 1.5 17.2 1.5C17.0011 1.5 16.8103 1.57902 16.6697 1.71967C16.529 1.86032 16.45 2.05109 16.45 2.25V3H8.95V2.25C8.95 2.05109 8.87098 1.86032 8.73033 1.71967C8.58967 1.57902 8.39891 1.5 8.2 1.5C8.00108 1.5 7.81032 1.57902 7.66967 1.71967C7.52901 1.86032 7.45 2.05109 7.45 2.25V3H5.2C4.80217 3 4.42064 3.15804 4.13934 3.43934C3.85803 3.72064 3.7 4.10218 3.7 4.5V19.5C3.7 19.8978 3.85803 20.2794 4.13934 20.5607C4.42064 20.842 4.80217 21 5.2 21H20.2C20.5978 21 20.9794 20.842 21.2607 20.5607C21.542 20.2794 21.7 19.8978 21.7 19.5V4.5C21.7 4.10218 21.542 3.72064 21.2607 3.43934C20.9794 3.15804 20.5978 3 20.2 3ZM8.575 17.25C8.35249 17.25 8.13499 17.184 7.94998 17.0604C7.76498 16.9368 7.62078 16.7611 7.53563 16.5555C7.45048 16.35 7.42821 16.1238 7.47161 15.9055C7.51502 15.6873 7.62217 15.4868 7.7795 15.3295C7.93684 15.1722 8.13729 15.065 8.35552 15.0216C8.57375 14.9782 8.79995 15.0005 9.00552 15.0856C9.21108 15.1708 9.38678 15.315 9.5104 15.5C9.63402 15.685 9.7 15.9025 9.7 16.125C9.7 16.4234 9.58147 16.7095 9.37049 16.9205C9.15951 17.1315 8.87337 17.25 8.575 17.25ZM12.7 17.25C12.4775 17.25 12.26 17.184 12.075 17.0604C11.89 16.9368 11.7458 16.7611 11.6606 16.5555C11.5755 16.35 11.5532 16.1238 11.5966 15.9055C11.64 15.6873 11.7472 15.4868 11.9045 15.3295C12.0618 15.1722 12.2623 15.065 12.4805 15.0216C12.6987 14.9782 12.9249 15.0005 13.1305 15.0856C13.3361 15.1708 13.5118 15.315 13.6354 15.5C13.759 15.685 13.825 15.9025 13.825 16.125C13.825 16.4234 13.7065 16.7095 13.4955 16.9205C13.2845 17.1315 12.9984 17.25 12.7 17.25ZM12.7 13.5C12.4775 13.5 12.26 13.434 12.075 13.3104C11.89 13.1868 11.7458 13.0111 11.6606 12.8055C11.5755 12.6 11.5532 12.3738 11.5966 12.1555C11.64 11.9373 11.7472 11.7368 11.9045 11.5795C12.0618 11.4222 12.2623 11.315 12.4805 11.2716C12.6987 11.2282 12.9249 11.2505 13.1305 11.3356C13.3361 11.4208 13.5118 11.565 13.6354 11.75C13.759 11.935 13.825 12.1525 13.825 12.375C13.825 12.6734 13.7065 12.9595 13.4955 13.1705C13.2845 13.3815 12.9984 13.5 12.7 13.5ZM16.825 17.25C16.6025 17.25 16.385 17.184 16.2 17.0604C16.015 16.9368 15.8708 16.7611 15.7856 16.5555C15.7005 16.35 15.6782 16.1238 15.7216 15.9055C15.765 15.6873 15.8722 15.4868 16.0295 15.3295C16.1868 15.1722 16.3873 15.065 16.6055 15.0216C16.8237 14.9782 17.0499 15.0005 17.2555 15.0856C17.4611 15.1708 17.6368 15.315 17.7604 15.5C17.884 15.685 17.95 15.9025 17.95 16.125C17.95 16.4234 17.8315 16.7095 17.6205 16.9205C17.4095 17.1315 17.1234 17.25 16.825 17.25ZM16.825 13.5C16.6025 13.5 16.385 13.434 16.2 13.3104C16.015 13.1868 15.8708 13.0111 15.7856 12.8055C15.7005 12.6 15.6782 12.3738 15.7216 12.1555C15.765 11.9373 15.8722 11.7368 16.0295 11.5795C16.1868 11.4222 16.3873 11.315 16.6055 11.2716C16.8237 11.2282 17.0499 11.2505 17.2555 11.3356C17.4611 11.4208 17.6368 11.565 17.7604 11.75C17.884 11.935 17.95 12.1525 17.95 12.375C17.95 12.6734 17.8315 12.9595 17.6205 13.1705C17.4095 13.3815 17.1234 13.5 16.825 13.5ZM20.2 7.5H5.2V4.5H7.45V5.25C7.45 5.44891 7.52901 5.63968 7.66967 5.78033C7.81032 5.92098 8.00108 6 8.2 6C8.39891 6 8.58967 5.92098 8.73033 5.78033C8.87098 5.63968 8.95 5.44891 8.95 5.25V4.5H16.45V5.25C16.45 5.44891 16.529 5.63968 16.6697 5.78033C16.8103 5.92098 17.0011 6 17.2 6C17.3989 6 17.5897 5.92098 17.7303 5.78033C17.871 5.63968 17.95 5.44891 17.95 5.25V4.5H20.2V7.5Z" fill="white"/>
</svg>
