<svg width="25" height="24" viewBox="0 0 25 24" fill="none" xmlns="http://www.w3.org/2000/svg">
<path d="M20.2 3H17.95V2.25C17.95 2.05109 17.871 1.86032 17.7303 1.71967C17.5897 1.57902 17.3989 1.5 17.2 1.5C17.0011 1.5 16.8103 1.57902 16.6697 1.71967C16.529 1.86032 16.45 2.05109 16.45 2.25V3H8.95V2.25C8.95 2.05109 8.87098 1.86032 8.73033 1.71967C8.58967 1.57902 8.39891 1.5 8.2 1.5C8.00108 1.5 7.81032 1.57902 7.66967 1.71967C7.52901 1.86032 7.45 2.05109 7.45 2.25V3H5.2C4.80217 3 4.42064 3.15804 4.13934 3.43934C3.85803 3.72064 3.7 4.10218 3.7 4.5V19.5C3.7 19.8978 3.85803 20.2794 4.13934 20.5607C4.42064 20.842 4.80217 21 5.2 21H20.2C20.5978 21 20.9794 20.842 21.2607 20.5607C21.542 20.2794 21.7 19.8978 21.7 19.5V4.5C21.7 4.10218 21.542 3.72064 21.2607 3.43934C20.9794 3.15804 20.5978 3 20.2 3ZM7.45 4.5V5.25C7.45 5.44891 7.52901 5.63968 7.66967 5.78033C7.81032 5.92098 8.00108 6 8.2 6C8.39891 6 8.58967 5.92098 8.73033 5.78033C8.87098 5.63968 8.95 5.44891 8.95 5.25V4.5H16.45V5.25C16.45 5.44891 16.529 5.63968 16.6697 5.78033C16.8103 5.92098 17.0011 6 17.2 6C17.3989 6 17.5897 5.92098 17.7303 5.78033C17.871 5.63968 17.95 5.44891 17.95 5.25V4.5H20.2V7.5H5.2V4.5H7.45ZM20.2 19.5H5.2V9H20.2V19.5ZM13.825 12.375C13.825 12.5975 13.759 12.815 13.6354 13C13.5118 13.185 13.3361 13.3292 13.1305 13.4144C12.9249 13.4995 12.6987 13.5218 12.4805 13.4784C12.2623 13.435 12.0618 13.3278 11.9045 13.1705C11.7472 13.0132 11.64 12.8127 11.5966 12.5945C11.5532 12.3762 11.5755 12.15 11.6606 11.9445C11.7458 11.7389 11.89 11.5632 12.075 11.4396C12.26 11.316 12.4775 11.25 12.7 11.25C12.9984 11.25 13.2845 11.3685 13.4955 11.5795C13.7065 11.7905 13.825 12.0766 13.825 12.375ZM17.95 12.375C17.95 12.5975 17.884 12.815 17.7604 13C17.6368 13.185 17.4611 13.3292 17.2555 13.4144C17.0499 13.4995 16.8237 13.5218 16.6055 13.4784C16.3873 13.435 16.1868 13.3278 16.0295 13.1705C15.8722 13.0132 15.765 12.8127 15.7216 12.5945C15.6782 12.3762 15.7005 12.15 15.7856 11.9445C15.8708 11.7389 16.015 11.5632 16.2 11.4396C16.385 11.316 16.6025 11.25 16.825 11.25C17.1234 11.25 17.4095 11.3685 17.6205 11.5795C17.8315 11.7905 17.95 12.0766 17.95 12.375ZM9.7 16.125C9.7 16.3475 9.63402 16.565 9.5104 16.75C9.38678 16.935 9.21108 17.0792 9.00552 17.1644C8.79995 17.2495 8.57375 17.2718 8.35552 17.2284C8.13729 17.185 7.93684 17.0778 7.7795 16.9205C7.62217 16.7632 7.51502 16.5627 7.47161 16.3445C7.42821 16.1262 7.45048 15.9 7.53563 15.6945C7.62078 15.4889 7.76498 15.3132 7.94998 15.1896C8.13499 15.066 8.35249 15 8.575 15C8.87337 15 9.15951 15.1185 9.37049 15.3295C9.58147 15.5405 9.7 15.8266 9.7 16.125ZM13.825 16.125C13.825 16.3475 13.759 16.565 13.6354 16.75C13.5118 16.935 13.3361 17.0792 13.1305 17.1644C12.9249 17.2495 12.6987 17.2718 12.4805 17.2284C12.2623 17.185 12.0618 17.0778 11.9045 16.9205C11.7472 16.7632 11.64 16.5627 11.5966 16.3445C11.5532 16.1262 11.5755 15.9 11.6606 15.6945C11.7458 15.4889 11.89 15.3132 12.075 15.1896C12.26 15.066 12.4775 15 12.7 15C12.9984 15 13.2845 15.1185 13.4955 15.3295C13.7065 15.5405 13.825 15.8266 13.825 16.125ZM17.95 16.125C17.95 16.3475 17.884 16.565 17.7604 16.75C17.6368 16.935 17.4611 17.0792 17.2555 17.1644C17.0499 17.2495 16.8237 17.2718 16.6055 17.2284C16.3873 17.185 16.1868 17.0778 16.0295 16.9205C15.8722 16.7632 15.765 16.5627 15.7216 16.3445C15.6782 16.1262 15.7005 15.9 15.7856 15.6945C15.8708 15.4889 16.015 15.3132 16.2 15.1896C16.385 15.066 16.6025 15 16.825 15C17.1234 15 17.4095 15.1185 17.6205 15.3295C17.8315 15.5405 17.95 15.8266 17.95 16.125Z" fill="white"/>
</svg>
