<svg width="97" height="96" viewBox="0 0 97 96" fill="none" xmlns="http://www.w3.org/2000/svg">
<path d="M65.6225 36.8775C65.9014 37.1561 66.1227 37.487 66.2737 37.8512C66.4247 38.2154 66.5024 38.6058 66.5024 39C66.5024 39.3942 66.4247 39.7846 66.2737 40.1488C66.1227 40.513 65.9014 40.8439 65.6225 41.1225L44.6225 62.1225C44.3439 62.4014 44.013 62.6227 43.6488 62.7737C43.2846 62.9247 42.8942 63.0024 42.5 63.0024C42.1058 63.0024 41.7154 62.9247 41.3512 62.7737C40.987 62.6227 40.6561 62.4014 40.3775 62.1225L31.3775 53.1225C30.8146 52.5596 30.4983 51.7961 30.4983 51C30.4983 50.2039 30.8146 49.4404 31.3775 48.8775C31.9404 48.3146 32.7039 47.9983 33.5 47.9983C34.2961 47.9983 35.0596 48.3146 35.6225 48.8775L42.5 55.7588L61.3775 36.8775C61.6561 36.5986 61.987 36.3773 62.3512 36.2263C62.7154 36.0753 63.1058 35.9976 63.5 35.9976C63.8942 35.9976 64.2846 36.0753 64.6488 36.2263C65.013 36.3773 65.3439 36.5986 65.6225 36.8775ZM84.5 18V78C84.5 79.5913 83.8679 81.1174 82.7426 82.2426C81.6174 83.3679 80.0913 84 78.5 84H18.5C16.9087 84 15.3826 83.3679 14.2574 82.2426C13.1321 81.1174 12.5 79.5913 12.5 78V18C12.5 16.4087 13.1321 14.8826 14.2574 13.7574C15.3826 12.6321 16.9087 12 18.5 12H78.5C80.0913 12 81.6174 12.6321 82.7426 13.7574C83.8679 14.8826 84.5 16.4087 84.5 18ZM78.5 78V18H18.5V78H78.5Z" fill="url(#paint0_linear_2216_2319)"/>
<defs>
<linearGradient id="paint0_linear_2216_2319" x1="84.0719" y1="11.9992" x2="12.0724" y2="83.9982" gradientUnits="userSpaceOnUse">
<stop stop-color="#E7C91F"/>
<stop offset="1" stop-color="#722079"/>
</linearGradient>
</defs>
</svg>
