<svg width="25" height="24" viewBox="0 0 25 24" fill="none" xmlns="http://www.w3.org/2000/svg">
<path d="M12.3 2.25C10.3716 2.25 8.48655 2.82183 6.88317 3.89317C5.2798 4.96451 4.03011 6.48726 3.29216 8.26884C2.5542 10.0504 2.36112 12.0108 2.73733 13.9021C3.11353 15.7934 4.04213 17.5307 5.40569 18.8943C6.76926 20.2579 8.50654 21.1865 10.3979 21.5627C12.2892 21.9389 14.2496 21.7458 16.0311 21.0078C17.8127 20.2699 19.3355 19.0202 20.4068 17.4168C21.4782 15.8134 22.05 13.9284 22.05 12C22.0473 9.41498 21.0191 6.93661 19.1913 5.10872C17.3634 3.28084 14.885 2.25273 12.3 2.25ZM17.55 12.75H12.3C12.1011 12.75 11.9103 12.671 11.7697 12.5303C11.629 12.3897 11.55 12.1989 11.55 12V6.75C11.55 6.55109 11.629 6.36032 11.7697 6.21967C11.9103 6.07902 12.1011 6 12.3 6C12.4989 6 12.6897 6.07902 12.8303 6.21967C12.971 6.36032 13.05 6.55109 13.05 6.75V11.25H17.55C17.7489 11.25 17.9397 11.329 18.0803 11.4697C18.221 11.6103 18.3 11.8011 18.3 12C18.3 12.1989 18.221 12.3897 18.0803 12.5303C17.9397 12.671 17.7489 12.75 17.55 12.75Z" fill="white"/>
</svg>
