<svg width="25" height="24" viewBox="0 0 25 24" fill="none" xmlns="http://www.w3.org/2000/svg">
<path d="M12.9 2.25C12.7011 2.25 12.5103 2.32902 12.3697 2.46967C12.229 2.61032 12.15 2.80109 12.15 3V8.25C12.15 8.44891 12.229 8.63968 12.3697 8.78033C12.5103 8.92098 12.7011 9 12.9 9C13.5604 9.00015 14.2023 9.21819 14.7261 9.6203C15.2499 10.0224 15.6264 10.5861 15.7972 11.224C15.9681 11.8619 15.9236 12.5384 15.6708 13.1484C15.418 13.7585 14.971 14.2681 14.399 14.5982C13.8271 14.9284 13.1622 15.0606 12.5075 14.9743C11.8528 14.8881 11.2448 14.5882 10.7779 14.1212C10.311 13.6542 10.0112 13.0462 9.92499 12.3915C9.83881 11.7368 9.97107 11.0719 10.3013 10.5C10.3505 10.4147 10.3825 10.3205 10.3954 10.2228C10.4082 10.1252 10.4017 10.0259 10.3762 9.93075C10.3507 9.83559 10.3067 9.7464 10.2467 9.66825C10.1867 9.59011 10.1119 9.52454 10.0266 9.47531L5.4797 6.85031C5.39438 6.80105 5.3002 6.76907 5.20253 6.75622C5.10485 6.74336 5.0056 6.74987 4.91045 6.77538C4.81529 6.80089 4.72609 6.84489 4.64795 6.90488C4.5698 6.96487 4.50424 7.03967 4.45501 7.125C3.38188 8.98371 2.95204 11.1446 3.23215 13.2725C3.51226 15.4004 4.48666 17.3764 6.00424 18.8941C7.52183 20.4118 9.49778 21.3863 11.6257 21.6665C13.7535 21.9468 15.9144 21.5171 17.7732 20.4441C19.632 19.3711 21.0848 17.7147 21.9063 15.7319C22.7278 13.7491 22.8721 11.5506 22.3168 9.47742C21.7615 7.40424 20.5376 5.57222 18.835 4.26547C17.1325 2.95872 15.0463 2.25028 12.9 2.25ZM5.40845 8.54062L8.68126 10.4306C8.49502 10.9329 8.39978 11.4643 8.40001 12C8.40001 12.1434 8.40751 12.2812 8.42063 12.4237L4.77001 13.4062C4.48532 11.7571 4.70794 10.0605 5.40845 8.54062ZM5.15813 14.8509L8.81438 13.8722C9.12007 14.5385 9.58361 15.1203 10.1648 15.5671C10.7461 16.0139 11.4275 16.3122 12.15 16.4363V20.2153C10.5973 20.0714 9.11702 19.4914 7.87988 18.5422C6.64273 17.593 5.69918 16.3134 5.15813 14.8509ZM13.65 20.2153V16.4363C14.6981 16.2586 15.6495 15.7156 16.3356 14.9035C17.0216 14.0914 17.398 13.0626 17.398 11.9995C17.398 10.9364 17.0216 9.90768 16.3356 9.09557C15.6495 8.28347 14.6981 7.74047 13.65 7.56281V3.78375C15.6996 3.97101 17.6051 4.91756 18.9926 6.43761C20.3801 7.95767 21.1494 9.94144 21.1494 11.9995C21.1494 14.0576 20.3801 16.0414 18.9926 17.5614C17.6051 19.0815 15.6996 20.0281 13.65 20.2153Z" fill="white"/>
</svg>
