<svg width="25" height="24" viewBox="0 0 25 24" fill="none" xmlns="http://www.w3.org/2000/svg">
<path d="M12.15 15.1819V21.3075C12.1503 21.3606 12.1394 21.4132 12.1179 21.4617C12.0965 21.5103 12.0649 21.5537 12.0254 21.5892C11.9859 21.6246 11.9393 21.6513 11.8887 21.6674C11.8381 21.6835 11.7846 21.6886 11.7319 21.6825C9.99886 21.4697 8.35447 20.7966 6.9696 19.7332C5.58473 18.6698 4.50992 17.255 3.85687 15.6356C3.83735 15.5864 3.82848 15.5336 3.83084 15.4807C3.8332 15.4278 3.84674 15.376 3.87056 15.3287C3.89438 15.2814 3.92796 15.2397 3.96906 15.2063C4.01017 15.1729 4.05788 15.1486 4.10906 15.135L10.0237 13.5469C10.0995 13.527 10.1795 13.5314 10.2526 13.5593C10.3258 13.5872 10.3883 13.6373 10.4316 13.7025C10.7897 14.2206 11.3007 14.6139 11.8931 14.8275C11.9677 14.8523 12.0325 14.8998 12.0786 14.9633C12.1247 15.0269 12.1497 15.1034 12.15 15.1819ZM12.9056 2.25002C12.8067 2.24928 12.7085 2.26813 12.6169 2.30549C12.5252 2.34285 12.4419 2.39797 12.3717 2.46769C12.3014 2.53741 12.2457 2.62034 12.2076 2.7117C12.1696 2.80307 12.15 2.90105 12.15 3.00002V8.25002C12.1485 8.44728 12.2254 8.63707 12.3637 8.7777C12.502 8.91832 12.6906 8.99829 12.8878 9.00002C13.5961 8.99696 14.2827 9.24464 14.8259 9.69919C15.3692 10.1537 15.7341 10.7858 15.856 11.4836C15.9779 12.1814 15.849 12.8997 15.4921 13.5116C15.1352 14.1234 14.5733 14.5893 13.9059 14.8266C13.8314 14.8515 13.7666 14.8992 13.7207 14.963C13.6748 15.0268 13.6501 15.1033 13.65 15.1819V21.3075C13.6497 21.3605 13.6606 21.413 13.682 21.4615C13.7034 21.51 13.7349 21.5534 13.7743 21.5888C13.8137 21.6242 13.8602 21.6509 13.9107 21.6671C13.9612 21.6832 14.0145 21.6885 14.0672 21.6825C16.5379 21.3903 18.8035 20.1646 20.4 18.2564C21.9965 16.3481 22.8031 13.9018 22.6546 11.4182C22.5062 8.9347 21.4139 6.60185 19.6015 4.8974C17.7891 3.19294 15.3936 2.24584 12.9056 2.25002ZM9.90562 11.7647C9.94053 11.3217 10.0734 10.892 10.2947 10.5066V10.5C10.369 10.3717 10.4036 10.2242 10.3941 10.0761C10.3846 9.92812 10.3314 9.78625 10.2412 9.66846C10.1782 9.58743 10.0998 9.51959 10.0106 9.46877L5.47969 6.8494C5.39432 6.80017 5.30008 6.76825 5.20237 6.75546C5.10466 6.74267 5.00539 6.74926 4.91022 6.77486C4.81506 6.80046 4.72588 6.84456 4.64777 6.90464C4.56966 6.96472 4.50415 7.03961 4.455 7.12502C3.36385 9.0148 2.9374 11.2157 3.24375 13.3763C3.25098 13.429 3.26935 13.4796 3.29764 13.5247C3.32593 13.5698 3.3635 13.6083 3.40784 13.6377C3.45218 13.6672 3.50228 13.6869 3.55481 13.6954C3.60734 13.704 3.66109 13.7013 3.7125 13.6875L9.63937 12.0938C9.71282 12.0735 9.7782 12.031 9.82654 11.972C9.87488 11.9131 9.90381 11.8407 9.90937 11.7647H9.90562Z" fill="white"/>
</svg>
