<svg width="24" height="24" viewBox="0 0 24 24" fill="none" xmlns="http://www.w3.org/2000/svg">
<path d="M1.49995 18.75V12.75C1.49995 12.5511 1.57897 12.3603 1.71962 12.2197C1.86027 12.079 2.05104 12 2.24995 12C2.44886 12 2.63963 12.079 2.78028 12.2197C2.92093 12.3603 2.99995 12.5511 2.99995 12.75V16.9397L10.7193 9.21937C10.789 9.14964 10.8717 9.09432 10.9627 9.05658C11.0538 9.01884 11.1514 8.99941 11.2499 8.99941C11.3485 8.99941 11.4461 9.01884 11.5372 9.05658C11.6282 9.09432 11.7109 9.14964 11.7806 9.21937L14.9999 12.4397L21.2193 6.21937C21.3601 6.07864 21.5509 5.99958 21.7499 5.99958C21.949 5.99958 22.1398 6.07864 22.2806 6.21937C22.4213 6.36011 22.5004 6.55098 22.5004 6.75C22.5004 6.94902 22.4213 7.13989 22.2806 7.28063L15.5306 14.0306C15.4609 14.1004 15.3782 14.1557 15.2872 14.1934C15.1961 14.2312 15.0985 14.2506 14.9999 14.2506C14.9014 14.2506 14.8038 14.2312 14.7127 14.1934C14.6217 14.1557 14.539 14.1004 14.4693 14.0306L11.2499 10.8103L4.06026 18H8.24995C8.44886 18 8.63963 18.079 8.78028 18.2197C8.92093 18.3603 8.99995 18.5511 8.99995 18.75C8.99995 18.9489 8.92093 19.1397 8.78028 19.2803C8.63963 19.421 8.44886 19.5 8.24995 19.5H2.24995C2.05104 19.5 1.86027 19.421 1.71962 19.2803C1.57897 19.1397 1.49995 18.9489 1.49995 18.75Z" fill="#FF4629"/>
</svg>
