<svg width="52" height="52" viewBox="0 0 52 52" fill="none" xmlns="http://www.w3.org/2000/svg">
<rect width="52" height="52" rx="8" fill="white" fill-opacity="0.1"/>
<path d="M17.75 26.0001C17.75 25.8012 17.829 25.6104 17.9697 25.4698C18.1103 25.3291 18.3011 25.2501 18.5 25.2501H25.25C25.4489 25.2501 25.6397 25.3291 25.7803 25.4698C25.921 25.6104 26 25.8012 26 26.0001C26 26.199 25.921 26.3898 25.7803 26.5304C25.6397 26.6711 25.4489 26.7501 25.25 26.7501H18.5C18.3011 26.7501 18.1103 26.6711 17.9697 26.5304C17.829 26.3898 17.75 26.199 17.75 26.0001ZM18.5 20.7501H23.75C23.9489 20.7501 24.1397 20.6711 24.2803 20.5304C24.421 20.3898 24.5 20.199 24.5 20.0001C24.5 19.8012 24.421 19.6104 24.2803 19.4698C24.1397 19.3291 23.9489 19.2501 23.75 19.2501H18.5C18.3011 19.2501 18.1103 19.3291 17.9697 19.4698C17.829 19.6104 17.75 19.8012 17.75 20.0001C17.75 20.199 17.829 20.3898 17.9697 20.5304C18.1103 20.6711 18.3011 20.7501 18.5 20.7501ZM31.25 31.2501H18.5C18.3011 31.2501 18.1103 31.3291 17.9697 31.4698C17.829 31.6104 17.75 31.8012 17.75 32.0001C17.75 32.199 17.829 32.3898 17.9697 32.5304C18.1103 32.6711 18.3011 32.7501 18.5 32.7501H31.25C31.4489 32.7501 31.6397 32.6711 31.7803 32.5304C31.921 32.3898 32 32.199 32 32.0001C32 31.8012 31.921 31.6104 31.7803 31.4698C31.6397 31.3291 31.4489 31.2501 31.25 31.2501ZM35.5306 21.7195L31.7806 17.9695C31.711 17.8997 31.6283 17.8444 31.5372 17.8067C31.4462 17.7689 31.3486 17.7495 31.25 17.7495C31.1514 17.7495 31.0538 17.7689 30.9628 17.8067C30.8717 17.8444 30.789 17.8997 30.7194 17.9695L26.9694 21.7195C26.8286 21.8602 26.7496 22.0511 26.7496 22.2501C26.7496 22.4491 26.8286 22.64 26.9694 22.7807C27.1101 22.9215 27.301 23.0005 27.5 23.0005C27.699 23.0005 27.8899 22.9215 28.0306 22.7807L30.5 20.3104V27.5001C30.5 27.699 30.579 27.8898 30.7197 28.0304C30.8603 28.1711 31.0511 28.2501 31.25 28.2501C31.4489 28.2501 31.6397 28.1711 31.7803 28.0304C31.921 27.8898 32 27.699 32 27.5001V20.3104L34.4694 22.7807C34.5391 22.8504 34.6218 22.9057 34.7128 22.9434C34.8039 22.9811 34.9015 23.0005 35 23.0005C35.0985 23.0005 35.1961 22.9811 35.2872 22.9434C35.3782 22.9057 35.4609 22.8504 35.5306 22.7807C35.6003 22.711 35.6556 22.6283 35.6933 22.5373C35.731 22.4462 35.7504 22.3486 35.7504 22.2501C35.7504 22.1516 35.731 22.054 35.6933 21.9629C35.6556 21.8719 35.6003 21.7892 35.5306 21.7195Z" fill="white" fill-opacity="0.1"/>
</svg>
