<svg width="97" height="96" viewBox="0 0 97 96" fill="none" xmlns="http://www.w3.org/2000/svg">
<path d="M86.6225 21.8779L74.6225 9.87791C74.3439 9.59898 74.013 9.3777 73.6488 9.22673C73.2846 9.07575 72.8942 8.99805 72.5 8.99805C72.1058 8.99805 71.7154 9.07575 71.3512 9.22673C70.987 9.3777 70.6561 9.59898 70.3775 9.87791L34.3775 45.8779C34.099 46.1567 33.8782 46.4877 33.7276 46.8519C33.577 47.216 33.4997 47.6063 33.5 48.0004V60.0004C33.5 60.7961 33.8161 61.5591 34.3787 62.1217C34.9413 62.6843 35.7044 63.0004 36.5 63.0004H48.5C48.8941 63.0007 49.2844 62.9234 49.6486 62.7728C50.0127 62.6222 50.3437 62.4014 50.6225 62.1229L86.6225 26.1229C86.9014 25.8443 87.1227 25.5134 87.2737 25.1492C87.4247 24.785 87.5024 24.3947 87.5024 24.0004C87.5024 23.6062 87.4247 23.2158 87.2737 22.8516C87.1227 22.4874 86.9014 22.1565 86.6225 21.8779ZM47.2588 57.0004H39.5V49.2417L63.5 25.2417L71.2588 33.0004L47.2588 57.0004ZM75.5 28.7592L67.7412 21.0004L72.5 16.2417L80.2588 24.0004L75.5 28.7592ZM84.5 48.0004V78.0004C84.5 79.5917 83.8679 81.1178 82.7426 82.243C81.6174 83.3683 80.0913 84.0004 78.5 84.0004H18.5C16.9087 84.0004 15.3826 83.3683 14.2574 82.243C13.1321 81.1178 12.5 79.5917 12.5 78.0004V18.0004C12.5 16.4091 13.1321 14.883 14.2574 13.7578C15.3826 12.6325 16.9087 12.0004 18.5 12.0004H48.5C49.2957 12.0004 50.0587 12.3165 50.6213 12.8791C51.1839 13.4417 51.5 14.2048 51.5 15.0004C51.5 15.7961 51.1839 16.5591 50.6213 17.1217C50.0587 17.6843 49.2957 18.0004 48.5 18.0004H18.5V78.0004H78.5V48.0004C78.5 47.2048 78.8161 46.4417 79.3787 45.8791C79.9413 45.3165 80.7044 45.0004 81.5 45.0004C82.2956 45.0004 83.0587 45.3165 83.6213 45.8791C84.1839 46.4417 84.5 47.2048 84.5 48.0004Z" fill="url(#paint0_linear_2266_4374)"/>
<defs>
<linearGradient id="paint0_linear_2266_4374" x1="87.0564" y1="8.99718" x2="12.0545" y2="83.9985" gradientUnits="userSpaceOnUse">
<stop stop-color="#E7C91F"/>
<stop offset="1" stop-color="#722079"/>
</linearGradient>
</defs>
</svg>
