<svg width="56" height="56" viewBox="0 0 56 56" fill="none" xmlns="http://www.w3.org/2000/svg">
<rect width="56" height="56" rx="16" fill="#EEBE7F" fill-opacity="0.25"/>
<path d="M31.4209 31.3291C31.5779 31.4866 31.6846 31.687 31.7277 31.9051C31.7708 32.1233 31.7483 32.3493 31.6631 32.5546C31.5778 32.7599 31.4336 32.9354 31.2487 33.0588C31.0638 33.1823 30.8464 33.2482 30.6241 33.2482C30.4017 33.2482 30.1844 33.1823 29.9995 33.0588C29.8145 32.9354 29.6703 32.7599 29.5851 32.5546C29.4998 32.3493 29.4773 32.1233 29.5204 31.9051C29.5635 31.687 29.6702 31.4866 29.8272 31.3291C29.9317 31.2242 30.0559 31.141 30.1926 31.0842C30.3294 31.0274 30.476 30.9982 30.6241 30.9982C30.7721 30.9982 30.9187 31.0274 31.0555 31.0842C31.1922 31.141 31.3164 31.2242 31.4209 31.3291ZM23.8272 30.5791C23.6702 30.7366 23.5635 30.937 23.5204 31.1551C23.4773 31.3733 23.4998 31.5993 23.5851 31.8046C23.6703 32.0099 23.8145 32.1854 23.9995 32.3088C24.1844 32.4323 24.4017 32.4982 24.6241 32.4982C24.8464 32.4982 25.0638 32.4323 25.2487 32.3088C25.4336 32.1854 25.5778 32.0099 25.6631 31.8046C25.7483 31.5993 25.7708 31.3733 25.7277 31.1551C25.6846 30.937 25.5779 30.7366 25.4209 30.5791C25.3165 30.4745 25.1924 30.3915 25.0558 30.3349C24.9192 30.2783 24.7728 30.2491 24.625 30.2491C24.4772 30.2491 24.3308 30.2783 24.1942 30.3349C24.0576 30.3915 23.9335 30.4745 23.8291 30.5791H23.8272ZM24.6709 26.9228C24.8279 26.7653 24.9346 26.5649 24.9777 26.3467C25.0208 26.1286 24.9983 25.9026 24.9131 25.6973C24.8278 25.4919 24.6836 25.3165 24.4987 25.193C24.3138 25.0696 24.0964 25.0037 23.8741 25.0037C23.6517 25.0037 23.4344 25.0696 23.2495 25.193C23.0645 25.3165 22.9203 25.4919 22.8351 25.6973C22.7498 25.9026 22.7273 26.1286 22.7704 26.3467C22.8135 26.5649 22.9202 26.7653 23.0772 26.9228C23.1818 27.0276 23.3061 27.1106 23.4429 27.1673C23.5797 27.2239 23.7264 27.2529 23.8745 27.2528C24.0225 27.2526 24.1691 27.2232 24.3058 27.1662C24.4425 27.1093 24.5665 27.0259 24.6709 26.9209V26.9228ZM29.1709 26.8291C29.0134 26.6721 28.813 26.5654 28.5949 26.5223C28.3767 26.4792 28.1507 26.5017 27.9454 26.5869C27.7401 26.6722 27.5646 26.8164 27.4412 27.0013C27.3177 27.1862 27.2518 27.4036 27.2518 27.6259C27.2518 27.8483 27.3177 28.0656 27.4412 28.2505C27.5646 28.4355 27.7401 28.5797 27.9454 28.6649C28.1507 28.7502 28.3767 28.7727 28.5949 28.7296C28.813 28.6865 29.0134 28.5798 29.1709 28.4228C29.2758 28.3183 29.359 28.1941 29.4158 28.0574C29.4726 27.9206 29.5018 27.774 29.5018 27.6259C29.5018 27.4779 29.4726 27.3313 29.4158 27.1945C29.359 27.0578 29.2758 26.9336 29.1709 26.8291ZM37.75 28C37.75 29.9284 37.1782 31.8134 36.1068 33.4168C35.0355 35.0202 33.5127 36.2699 31.7312 37.0078C29.9496 37.7458 27.9892 37.9389 26.0979 37.5627C24.2066 37.1865 22.4693 36.2579 21.1057 34.8943C19.7421 33.5307 18.8135 31.7934 18.4373 29.9021C18.0611 28.0108 18.2542 26.0504 18.9922 24.2688C19.7301 22.4873 20.9798 20.9645 22.5832 19.8932C24.1866 18.8218 26.0716 18.25 28 18.25C28.1989 18.25 28.3897 18.329 28.5303 18.4697C28.671 18.6103 28.75 18.8011 28.75 19C28.75 19.9946 29.1451 20.9484 29.8484 21.6517C30.5516 22.3549 31.5054 22.75 32.5 22.75C32.6989 22.75 32.8897 22.829 33.0303 22.9697C33.171 23.1103 33.25 23.3011 33.25 23.5C33.25 24.4946 33.6451 25.4484 34.3484 26.1517C35.0516 26.8549 36.0054 27.25 37 27.25C37.1989 27.25 37.3897 27.329 37.5303 27.4697C37.671 27.6103 37.75 27.8011 37.75 28ZM36.2209 28.6928C35.0977 28.5223 34.0598 27.9929 33.2623 27.1836C32.4649 26.3744 31.9508 25.3288 31.7969 24.2031C30.6712 24.0492 29.6256 23.5351 28.8164 22.7377C28.0071 21.9402 27.4777 20.9023 27.3072 19.7791C25.7401 19.9111 24.2434 20.4884 22.9934 21.4428C21.7435 22.3972 20.7923 23.689 20.2521 25.1659C19.7119 26.6429 19.6051 28.2435 19.9442 29.7791C20.2834 31.3148 21.0544 32.7215 22.1665 33.8335C23.2785 34.9456 24.6852 35.7166 26.2209 36.0558C27.7565 36.3949 29.3571 36.2881 30.8341 35.7479C32.311 35.2077 33.6028 34.2565 34.5572 33.0066C35.5116 31.7566 36.0889 30.2599 36.2209 28.6928Z" fill="#EEBE7F"/>
</svg>
