<svg width="56" height="56" viewBox="0 0 56 56" fill="none" xmlns="http://www.w3.org/2000/svg">
<rect width="56" height="56" rx="16" fill="#CBBF65" fill-opacity="0.25"/>
<path d="M37 22.666C36.8235 22.7574 36.6178 22.775 36.4283 22.7149C36.2388 22.6548 36.0809 22.5219 35.9894 22.3454C35.2735 20.9312 34.1899 19.7359 32.8525 18.8851C32.7691 18.8325 32.697 18.764 32.6401 18.6836C32.5832 18.6031 32.5427 18.5122 32.521 18.4161C32.4992 18.32 32.4966 18.2206 32.5132 18.1234C32.5299 18.0263 32.5656 17.9334 32.6181 17.8501C32.6707 17.7667 32.7392 17.6945 32.8196 17.6377C32.9001 17.5808 32.991 17.5403 33.0871 17.5185C33.1832 17.4968 33.2826 17.4941 33.3798 17.5108C33.4769 17.5275 33.5698 17.5631 33.6531 17.6157C35.2118 18.6137 36.4775 20.0078 37.3206 21.6554C37.412 21.8319 37.4296 22.0376 37.3695 22.2271C37.3094 22.4166 37.1765 22.5745 37 22.666ZM19.3478 22.7504C19.4852 22.7503 19.62 22.7125 19.7373 22.6411C19.8547 22.5697 19.9502 22.4674 20.0134 22.3454C20.7293 20.9312 21.8129 19.7359 23.1503 18.8851C23.3186 18.7789 23.4379 18.6102 23.4819 18.4161C23.5258 18.222 23.4909 18.0184 23.3847 17.8501C23.2785 17.6817 23.1098 17.5625 22.9157 17.5185C22.7216 17.4746 22.518 17.5095 22.3497 17.6157C20.791 18.6137 19.5254 20.0078 18.6822 21.6554C18.623 21.7697 18.5942 21.8973 18.5986 22.026C18.6029 22.1546 18.6404 22.28 18.7072 22.39C18.7741 22.5 18.8682 22.5909 18.9803 22.654C19.0925 22.7171 19.2191 22.7503 19.3478 22.7504ZM36.7947 32.4948C36.9276 32.7226 36.998 32.9815 36.9989 33.2452C36.9998 33.509 36.9311 33.7683 36.7998 33.9971C36.6685 34.2259 36.4792 34.4159 36.251 34.5482C36.0228 34.6805 35.7638 34.7502 35.5 34.7504H31.675C31.5029 35.5981 31.043 36.3602 30.3732 36.9077C29.7034 37.4551 28.865 37.7541 28 37.7541C27.135 37.7541 26.2966 37.4551 25.6268 36.9077C24.957 36.3602 24.4971 35.5981 24.325 34.7504H20.5C20.2364 34.7499 19.9776 34.6799 19.7496 34.5475C19.5217 34.4151 19.3326 34.225 19.2016 33.9963C19.0705 33.7676 19.002 33.5084 19.003 33.2448C19.004 32.9812 19.0744 32.7225 19.2072 32.4948C20.0519 31.037 20.5 28.9641 20.5 26.5004C20.5 24.5113 21.2902 22.6036 22.6967 21.1971C24.1032 19.7906 26.0109 19.0004 28 19.0004C29.9891 19.0004 31.8968 19.7906 33.3033 21.1971C34.7098 22.6036 35.5 24.5113 35.5 26.5004C35.5 28.9632 35.9481 31.036 36.7947 32.4948ZM30.1206 34.7504H25.8794C26.0348 35.1886 26.3221 35.5679 26.7018 35.8361C27.0816 36.1044 27.5351 36.2484 28 36.2484C28.4649 36.2484 28.9184 36.1044 29.2982 35.8361C29.6779 35.5679 29.9652 35.1886 30.1206 34.7504ZM35.5 33.2504C34.5025 31.5376 34 29.267 34 26.5004C34 24.9091 33.3679 23.383 32.2426 22.2577C31.1174 21.1325 29.5913 20.5004 28 20.5004C26.4087 20.5004 24.8826 21.1325 23.7574 22.2577C22.6321 23.383 22 24.9091 22 26.5004C22 29.2679 21.4956 31.5385 20.5 33.2504H35.5Z" fill="#CBBF65"/>
</svg>
