<svg width="32" height="32" viewBox="0 0 32 32" fill="none" xmlns="http://www.w3.org/2000/svg">
<path d="M6.73999 4.32738C6.65217 4.22839 6.54557 4.14781 6.42639 4.09032C6.3072 4.03282 6.17778 3.99956 6.04564 3.99245C5.9135 3.98534 5.78127 4.00453 5.6566 4.0489C5.53193 4.09328 5.41731 4.16195 5.31937 4.25095C5.22144 4.33995 5.14215 4.4475 5.08609 4.56737C5.03003 4.68724 4.99832 4.81705 4.99279 4.94926C4.98727 5.08148 5.00804 5.21348 5.05391 5.3376C5.09977 5.46173 5.16982 5.57552 5.25999 5.67238L7.35249 7.97488C6.46381 9.50022 5.99701 11.2345 5.99999 12.9999C5.99999 17.4174 4.96749 20.7974 4.27374 21.9924C4.09657 22.2962 4.00265 22.6413 4.00145 22.993C4.00024 23.3447 4.09179 23.6905 4.26686 23.9955C4.44193 24.3005 4.69433 24.554 4.99862 24.7303C5.3029 24.9066 5.6483 24.9996 5.99999 24.9999H22.83L25.26 27.6724C25.3478 27.7714 25.4544 27.8519 25.5736 27.9094C25.6928 27.9669 25.8222 28.0002 25.9543 28.0073C26.0865 28.0144 26.2187 27.9952 26.3434 27.9509C26.468 27.9065 26.5827 27.8378 26.6806 27.7488C26.7785 27.6598 26.8578 27.5523 26.9139 27.4324C26.9699 27.3125 27.0017 27.1827 27.0072 27.0505C27.0127 26.9183 26.9919 26.7863 26.9461 26.6622C26.9002 26.538 26.8302 26.4242 26.74 26.3274L6.73999 4.32738ZM5.99999 22.9999C6.96249 21.3449 7.99999 17.5099 7.99999 12.9999C7.99823 11.8049 8.26569 10.6248 8.78249 9.54738L21.0112 22.9999H5.99999ZM21 27.9999C21 28.2651 20.8946 28.5195 20.7071 28.707C20.5196 28.8945 20.2652 28.9999 20 28.9999H12C11.7348 28.9999 11.4804 28.8945 11.2929 28.707C11.1053 28.5195 11 28.2651 11 27.9999C11 27.7347 11.1053 27.4803 11.2929 27.2928C11.4804 27.1052 11.7348 26.9999 12 26.9999H20C20.2652 26.9999 20.5196 27.1052 20.7071 27.2928C20.8946 27.4803 21 27.7347 21 27.9999ZM26.75 22.4061C26.6332 22.4514 26.509 22.4747 26.3837 22.4749C26.1829 22.4747 25.9867 22.414 25.8209 22.3007C25.655 22.1875 25.527 22.0269 25.4537 21.8399C24.5437 19.5236 24 16.2186 24 12.9999C24.0004 11.6006 23.6338 10.2258 22.9368 9.01249C22.2398 7.79922 21.2367 6.78997 20.0278 6.0855C18.8188 5.38102 17.4462 5.00595 16.047 4.99773C14.6478 4.9895 13.2709 5.34841 12.0537 6.03863C11.8236 6.16333 11.5537 6.19282 11.3021 6.12077C11.0504 6.04872 10.8371 5.88086 10.7078 5.65325C10.5785 5.42564 10.5436 5.15641 10.6107 4.90337C10.6777 4.65034 10.8412 4.43367 11.0662 4.29988C12.5876 3.43694 14.3087 2.98812 16.0577 2.99821C17.8067 3.00831 19.5225 3.47696 21.0338 4.3574C22.5451 5.23784 23.799 6.49927 24.6705 8.01577C25.5419 9.53228 26.0003 11.2508 26 12.9999C26 17.4186 27.0062 20.3236 27.315 21.1099C27.4119 21.3567 27.4069 21.6319 27.3009 21.875C27.1949 22.1181 26.9968 22.3091 26.75 22.4061Z" fill="white" fill-opacity="0.6"/>
</svg>
