<svg width="97" height="96" viewBox="0 0 97 96" fill="none" xmlns="http://www.w3.org/2000/svg">
<path d="M86.6224 81.8774L67.8461 63.1049C73.2882 56.5713 76.002 48.1911 75.4228 39.7076C74.8436 31.2242 71.016 23.2906 64.7364 17.5573C58.4568 11.824 50.2085 8.73233 41.7075 8.92553C33.2065 9.11873 25.1072 12.5819 19.0946 18.5946C13.0819 24.6072 9.61873 32.7065 9.42553 41.2075C9.23233 49.7085 12.324 57.9568 18.0573 64.2364C23.7906 70.516 31.7242 74.3436 40.2076 74.9228C48.6911 75.502 57.0713 72.7882 63.6049 67.3461L82.3774 86.1224C82.6561 86.4011 82.987 86.6222 83.3512 86.7731C83.7154 86.9239 84.1057 87.0016 84.4999 87.0016C84.8941 87.0016 85.2844 86.9239 85.6486 86.7731C86.0128 86.6222 86.3437 86.4011 86.6224 86.1224C86.9011 85.8437 87.1222 85.5128 87.2731 85.1486C87.4239 84.7844 87.5016 84.3941 87.5016 83.9999C87.5016 83.6057 87.4239 83.2154 87.2731 82.8512C87.1222 82.487 86.9011 82.1561 86.6224 81.8774ZM15.4999 41.9999C15.4999 36.6598 17.0834 31.4396 20.0502 26.9995C23.017 22.5594 27.2338 19.0987 32.1674 17.0551C37.101 15.0116 42.5298 14.4769 47.7673 15.5187C53.0048 16.5605 57.8158 19.132 61.5918 22.908C65.3678 26.684 67.9393 31.495 68.9811 36.7324C70.0229 41.9699 69.4882 47.3987 67.4446 52.3323C65.4011 57.2659 61.9404 61.4828 57.5003 64.4496C53.0602 67.4164 47.84 68.9999 42.4999 68.9999C35.3415 68.9919 28.4785 66.1448 23.4168 61.083C18.355 56.0212 15.5078 49.1583 15.4999 41.9999Z" fill="url(#paint0_linear_2266_5565)"/>
<defs>
<linearGradient id="paint0_linear_2266_5565" x1="87.0373" y1="8.91609" x2="8.95322" y2="86.9996" gradientUnits="userSpaceOnUse">
<stop stop-color="#E7C91F"/>
<stop offset="1" stop-color="#722079"/>
</linearGradient>
</defs>
</svg>
