<svg width="56" height="56" viewBox="0 0 56 56" fill="none" xmlns="http://www.w3.org/2000/svg">
<path d="M28 23.5C27.11 23.5 26.24 23.7639 25.4999 24.2584C24.7599 24.7528 24.1831 25.4556 23.8425 26.2779C23.5019 27.1002 23.4128 28.005 23.5865 28.8779C23.7601 29.7508 24.1887 30.5526 24.818 31.182C25.4474 31.8113 26.2492 32.2399 27.1221 32.4135C27.995 32.5871 28.8998 32.498 29.7221 32.1574C30.5443 31.8168 31.2471 31.2401 31.7416 30.5C32.2361 29.76 32.5 28.89 32.5 28C32.4988 26.8069 32.0243 25.663 31.1806 24.8194C30.337 23.9757 29.1931 23.5012 28 23.5ZM28 31C27.4067 31 26.8266 30.824 26.3333 30.4944C25.8399 30.1647 25.4554 29.6962 25.2284 29.148C25.0013 28.5999 24.9419 27.9967 25.0576 27.4147C25.1734 26.8328 25.4591 26.2982 25.8787 25.8787C26.2982 25.4591 26.8328 25.1734 27.4147 25.0576C27.9967 24.9419 28.5999 25.0013 29.148 25.2283C29.6962 25.4554 30.1648 25.8399 30.4944 26.3333C30.824 26.8266 31 27.4066 31 28C31 28.7956 30.6839 29.5587 30.1213 30.1213C29.5587 30.6839 28.7956 31 28 31ZM38.3069 26.0509C38.286 25.9453 38.2426 25.8454 38.1797 25.7581C38.1167 25.6707 38.0357 25.5979 37.9422 25.5447L35.1456 23.9509L35.1344 20.799C35.134 20.6905 35.1101 20.5833 35.0643 20.4849C35.0185 20.3865 34.9519 20.2992 34.8691 20.229C33.8546 19.3709 32.6864 18.7134 31.4266 18.2912C31.3273 18.2577 31.2222 18.2452 31.1179 18.2547C31.0136 18.2643 30.9124 18.2955 30.8209 18.3465L28 19.9234L25.1762 18.3437C25.0847 18.2924 24.9834 18.2609 24.8789 18.2513C24.7744 18.2416 24.6691 18.2539 24.5697 18.2875C23.3108 18.7127 22.1439 19.3728 21.1309 20.2328C21.0482 20.3028 20.9817 20.39 20.9359 20.4882C20.8901 20.5865 20.8661 20.6935 20.8656 20.8019L20.8516 23.9565L18.055 25.5503C17.9614 25.6036 17.8804 25.6763 17.8175 25.7637C17.7546 25.8511 17.7112 25.9509 17.6903 26.0565C17.4344 27.3427 17.4344 28.6667 17.6903 29.9528C17.7112 30.0584 17.7546 30.1583 17.8175 30.2456C17.8804 30.333 17.9614 30.4058 18.055 30.459L20.8516 32.0528L20.8628 35.2047C20.8631 35.3132 20.887 35.4204 20.9329 35.5188C20.9787 35.6172 21.0453 35.7045 21.1281 35.7747C22.1426 36.6328 23.3108 37.2904 24.5706 37.7125C24.6698 37.7461 24.775 37.7585 24.8793 37.749C24.9836 37.7394 25.0848 37.7082 25.1762 37.6572L28 36.0765L30.8237 37.6562C30.9355 37.7185 31.0615 37.7508 31.1894 37.75C31.2713 37.75 31.3526 37.7367 31.4303 37.7106C32.6891 37.286 33.8559 36.6265 34.8691 35.7672C34.9518 35.6971 35.0183 35.61 35.0641 35.5117C35.1099 35.4135 35.1339 35.3065 35.1344 35.1981L35.1484 32.0434L37.945 30.4497C38.0386 30.3964 38.1196 30.3236 38.1825 30.2363C38.2454 30.1489 38.2888 30.049 38.3097 29.9434C38.5642 28.6583 38.5632 27.3357 38.3069 26.0509ZM36.9006 29.3237L34.2222 30.8472C34.1048 30.9139 34.0077 31.0111 33.9409 31.1284C33.8866 31.2222 33.8294 31.3215 33.7712 31.4153C33.6968 31.5335 33.6572 31.6703 33.6569 31.81L33.6428 34.8334C32.9229 35.3988 32.1208 35.8509 31.2644 36.174L28.5625 34.6684C28.4503 34.6064 28.3241 34.5741 28.1959 34.5747H28.1781C28.0647 34.5747 27.9503 34.5747 27.8369 34.5747C27.7027 34.5713 27.5701 34.6037 27.4525 34.6684L24.7487 36.1778C23.8905 35.8571 23.0862 35.4072 22.3637 34.8437L22.3534 31.825C22.353 31.685 22.3134 31.548 22.2391 31.4294C22.1809 31.3356 22.1237 31.2419 22.0703 31.1425C22.004 31.0233 21.9069 30.9242 21.7891 30.8556L19.1078 29.3284C18.9691 28.4507 18.9691 27.5567 19.1078 26.679L21.7816 25.1528C21.8989 25.0861 21.9961 24.9889 22.0628 24.8715C22.1172 24.7778 22.1744 24.6784 22.2325 24.5847C22.3069 24.4664 22.3465 24.3297 22.3469 24.19L22.3609 21.1665C23.0809 20.6012 23.8829 20.1491 24.7394 19.8259L27.4375 21.3315C27.5549 21.3966 27.6877 21.429 27.8219 21.4253C27.9353 21.4253 28.0497 21.4253 28.1631 21.4253C28.2973 21.4286 28.4299 21.3963 28.5475 21.3315L31.2512 19.8222C32.1095 20.1429 32.9138 20.5927 33.6362 21.1562L33.6466 24.175C33.647 24.3149 33.6866 24.452 33.7609 24.5706C33.8191 24.6644 33.8762 24.7581 33.9297 24.8575C33.9959 24.9767 34.0931 25.0758 34.2109 25.1444L36.8922 26.6715C37.0328 27.5499 37.0344 28.4449 36.8969 29.3237H36.9006Z" fill="white"/>
</svg>
