<svg width="56" height="56" viewBox="0 0 56 56" fill="none" xmlns="http://www.w3.org/2000/svg">
<rect width="56" height="56" rx="16" fill="#A7C960" fill-opacity="0.25"/>
<path d="M38.2806 25.97L30.7806 18.47C30.6758 18.365 30.5422 18.2935 30.3967 18.2645C30.2512 18.2355 30.1004 18.2502 29.9633 18.3069C29.8263 18.3636 29.7091 18.4597 29.6266 18.583C29.5441 18.7063 29.5001 18.8513 29.5 18.9997V22.7825C27.0681 22.9906 24.3822 24.1812 22.1725 26.0553C19.5119 28.3128 17.8553 31.2218 17.5075 34.2462C17.4803 34.4813 17.528 34.7191 17.6437 34.9255C17.7595 35.132 17.9374 35.2967 18.1522 35.3962C18.367 35.4957 18.6076 35.5249 18.84 35.4797C19.0723 35.4345 19.2845 35.3171 19.4462 35.1443C20.4775 34.0465 24.1469 30.575 29.5 30.2693V33.9997C29.5001 34.148 29.5441 34.293 29.6266 34.4163C29.7091 34.5396 29.8263 34.6357 29.9633 34.6924C30.1004 34.7491 30.2512 34.7638 30.3967 34.7348C30.5422 34.7058 30.6758 34.6343 30.7806 34.5293L38.2806 27.0293C38.4209 26.8887 38.4997 26.6983 38.4997 26.4997C38.4997 26.3011 38.4209 26.1106 38.2806 25.97ZM31 32.1893V29.4997C31 29.3007 30.921 29.11 30.7803 28.9693C30.6397 28.8287 30.4489 28.7497 30.25 28.7497C27.6175 28.7497 25.0534 29.4368 22.6291 30.7934C21.3943 31.4874 20.2439 32.3216 19.2006 33.2797C19.7444 31.0447 21.115 28.9193 23.1428 27.199C25.3197 25.3531 27.9766 24.2497 30.25 24.2497C30.4489 24.2497 30.6397 24.1706 30.7803 24.03C30.921 23.8893 31 23.6986 31 23.4997V20.8109L36.6897 26.4997L31 32.1893Z" fill="#A7C960"/>
</svg>
