<svg width="97" height="96" viewBox="0 0 97 96" fill="none" xmlns="http://www.w3.org/2000/svg">
<path d="M90.2563 26.2799C89.9507 25.3263 89.3673 24.4857 88.581 23.8657C87.7946 23.2457 86.8411 22.8746 85.8425 22.7999L71.99 21.7049L66.6613 9.08237C66.272 8.1683 65.6226 7.38884 64.7939 6.84096C63.9651 6.29308 62.9935 6.00098 62 6.00098C61.0065 6.00098 60.0349 6.29308 59.2062 6.84096C58.3774 7.38884 57.728 8.1683 57.3388 9.08237L52.01 21.7049L38.1575 22.7999C37.1628 22.8732 36.2124 23.2411 35.4276 23.8566C34.6428 24.4722 34.059 25.3076 33.7509 26.2562C33.4427 27.2048 33.4241 28.2237 33.6973 29.183C33.9705 30.1423 34.5232 30.9985 35.285 31.6424L45.8075 40.5224L42.5975 53.7936C42.364 54.7547 42.4211 55.7636 42.7616 56.6922C43.1021 57.6208 43.7106 58.4274 44.51 59.0099C45.3168 59.6046 46.282 59.9466 47.2832 59.9927C48.2845 60.0388 49.277 59.7868 50.135 59.2686L62 52.1249L73.8688 59.2724C74.7273 59.7891 75.7195 60.0402 76.7204 59.9942C77.7214 59.9481 78.6863 59.607 79.4938 59.0136C80.2917 58.4301 80.8989 57.6231 81.2386 56.6948C81.5783 55.7664 81.6354 54.7581 81.4025 53.7974L78.1925 40.5261L88.715 31.6461C89.477 31.0068 90.0308 30.1545 90.3054 29.1984C90.58 28.2424 90.5629 27.2261 90.2563 26.2799ZM72.905 37.1249C72.4793 37.4846 72.1622 37.9559 71.9893 38.4858C71.8164 39.0157 71.7946 39.5833 71.9263 40.1249L75.0313 52.9536L63.5488 46.0499C63.0817 45.7688 62.547 45.6203 62.0019 45.6203C61.4568 45.6203 60.922 45.7688 60.455 46.0499L48.9725 52.9611L52.0775 40.1249C52.2087 39.5829 52.1863 39.0151 52.0128 38.4852C51.8392 37.9553 51.5214 37.4842 51.095 37.1249L41 28.5974L54.32 27.5436C54.8682 27.5001 55.3939 27.3068 55.8397 26.9847C56.2854 26.6626 56.6341 26.2242 56.8475 25.7174L62 13.4661L67.1713 25.7174C67.3847 26.2242 67.7333 26.6626 68.1791 26.9847C68.6248 27.3068 69.1505 27.5001 69.6988 27.5436L83.0225 28.5974L72.905 37.1249ZM33.53 46.1924L11.6225 68.1224C11.0596 68.6853 10.2961 69.0015 9.50001 69.0015C8.70391 69.0015 7.94043 68.6853 7.37751 68.1224C6.81458 67.5595 6.49834 66.796 6.49834 65.9999C6.49834 65.2038 6.81458 64.4403 7.37751 63.8774L29.2963 41.9586C29.8592 41.3957 30.6227 41.0795 31.4188 41.0795C32.2148 41.0795 32.9783 41.3957 33.5413 41.9586C34.1042 42.5215 34.4204 43.285 34.4204 44.0811C34.4204 44.8772 34.1042 45.6407 33.5413 46.2036L33.53 46.1924ZM37.5838 64.8936C38.1459 65.4562 38.4617 66.2189 38.4617 67.0142C38.4617 67.8096 38.1459 68.5723 37.5838 69.1349L17.6225 89.1224C17.3438 89.4011 17.0129 89.6222 16.6487 89.773C16.2845 89.9239 15.8942 90.0015 15.5 90.0015C15.1058 90.0015 14.7155 89.9239 14.3513 89.773C13.9871 89.6222 13.6562 89.4011 13.3775 89.1224C13.0988 88.8436 12.8777 88.5127 12.7268 88.1486C12.576 87.7844 12.4983 87.3941 12.4983 86.9999C12.4983 86.6057 12.576 86.2154 12.7268 85.8512C12.8777 85.487 13.0988 85.1561 13.3775 84.8774L33.3538 64.9049C33.9163 64.3427 34.6791 64.0269 35.4744 64.0269C36.2697 64.0269 37.0325 64.3427 37.595 64.9049L37.5838 64.8936ZM64.9588 64.5186C65.2377 64.7972 65.459 65.1281 65.6099 65.4923C65.7609 65.8565 65.8386 66.2469 65.8386 66.6411C65.8386 67.0354 65.7609 67.4258 65.6099 67.7899C65.459 68.1541 65.2377 68.485 64.9588 68.7636L44.6038 89.1186C44.0408 89.6815 43.2773 89.9978 42.4813 89.9978C41.6852 89.9978 40.9217 89.6815 40.3588 89.1186C39.7958 88.5557 39.4796 87.7922 39.4796 86.9961C39.4796 86.2 39.7958 85.4365 40.3588 84.8736L60.7175 64.5186C60.9966 64.2377 61.3286 64.0148 61.6944 63.8628C62.0601 63.7108 62.4523 63.6328 62.8483 63.6331C63.2443 63.6334 63.6364 63.7122 64.0018 63.8648C64.3673 64.0175 64.6989 64.2409 64.9775 64.5224L64.9588 64.5186Z" fill="url(#paint0_linear_2212_1442)"/>
<defs>
<linearGradient id="paint0_linear_2212_1442" x1="90" y1="6" x2="6" y2="90" gradientUnits="userSpaceOnUse">
<stop stop-color="#E7C91F"/>
<stop offset="1" stop-color="#722079"/>
</linearGradient>
</defs>
</svg>
