<svg width="56" height="56" viewBox="0 0 56 56" fill="none" xmlns="http://www.w3.org/2000/svg">
<rect width="56" height="56" rx="16" fill="#EA7979" fill-opacity="0.25"/>
<path d="M34.9272 21.1244C34.03 20.2182 32.9629 19.4978 31.7869 19.0046C30.611 18.5114 29.3493 18.2549 28.0741 18.25H28C25.4141 18.25 22.9342 19.2772 21.1057 21.1057C19.2772 22.9342 18.25 25.4141 18.25 28V33.25C18.25 33.8467 18.4871 34.419 18.909 34.841C19.331 35.2629 19.9033 35.5 20.5 35.5H22C22.5967 35.5 23.169 35.2629 23.591 34.841C24.0129 34.419 24.25 33.8467 24.25 33.25V29.5C24.25 28.9033 24.0129 28.331 23.591 27.909C23.169 27.4871 22.5967 27.25 22 27.25H19.7838C19.9284 25.6862 20.5158 24.196 21.4771 22.9541C22.4384 21.7122 23.7338 20.77 25.2114 20.238C26.689 19.706 28.2877 19.6062 29.82 19.9504C31.3524 20.2945 32.7548 21.0682 33.8631 22.1809C35.2177 23.5425 36.0509 25.3366 36.2172 27.25H34C33.4033 27.25 32.831 27.4871 32.409 27.909C31.9871 28.331 31.75 28.9033 31.75 29.5V33.25C31.75 33.8467 31.9871 34.419 32.409 34.841C32.831 35.2629 33.4033 35.5 34 35.5H36.25C36.25 36.0967 36.0129 36.669 35.591 37.091C35.169 37.5129 34.5967 37.75 34 37.75H28.75C28.5511 37.75 28.3603 37.829 28.2197 37.9697C28.079 38.1103 28 38.3011 28 38.5C28 38.6989 28.079 38.8897 28.2197 39.0303C28.3603 39.171 28.5511 39.25 28.75 39.25H34C34.9946 39.25 35.9484 38.8549 36.6517 38.1516C37.3549 37.4484 37.75 36.4946 37.75 35.5V28C37.7549 26.7246 37.5081 25.4608 37.0237 24.2809C36.5393 23.1011 35.8268 22.0284 34.9272 21.1244ZM22 28.75C22.1989 28.75 22.3897 28.829 22.5303 28.9697C22.671 29.1103 22.75 29.3011 22.75 29.5V33.25C22.75 33.4489 22.671 33.6397 22.5303 33.7803C22.3897 33.921 22.1989 34 22 34H20.5C20.3011 34 20.1103 33.921 19.9697 33.7803C19.829 33.6397 19.75 33.4489 19.75 33.25V28.75H22ZM34 34C33.8011 34 33.6103 33.921 33.4697 33.7803C33.329 33.6397 33.25 33.4489 33.25 33.25V29.5C33.25 29.3011 33.329 29.1103 33.4697 28.9697C33.6103 28.829 33.8011 28.75 34 28.75H36.25V34H34Z" fill="#EA7979"/>
</svg>
