<svg width="25" height="24" viewBox="0 0 25 24" fill="none" xmlns="http://www.w3.org/2000/svg">
<path d="M21.3003 7.79662C22.341 9.97331 22.5386 12.4584 21.8549 14.7722C21.1712 17.0859 19.6546 19.0645 17.5979 20.3258C15.5412 21.5872 13.0901 22.042 10.7178 21.6025C8.34545 21.163 6.22 19.8603 4.75166 17.9459C3.28332 16.0314 2.57617 13.6409 2.7667 11.2358C2.95722 8.83061 4.03191 6.58127 5.78335 4.92187C7.53479 3.26248 9.83883 2.31067 12.2508 2.25014C14.6627 2.18962 17.0116 3.02467 18.844 4.59412L20.9694 2.46787C21.1101 2.32714 21.301 2.24808 21.5 2.24808C21.699 2.24808 21.8899 2.32714 22.0306 2.46787C22.1713 2.6086 22.2504 2.79948 22.2504 2.9985C22.2504 3.19752 22.1713 3.38839 22.0306 3.52912L13.0306 12.5291C12.8899 12.6699 12.699 12.7489 12.5 12.7489C12.301 12.7489 12.1101 12.6699 11.9694 12.5291C11.8286 12.3884 11.7496 12.1975 11.7496 11.9985C11.7496 11.7995 11.8286 11.6086 11.9694 11.4679L14.5681 8.86912C13.8638 8.40333 13.0229 8.18887 12.1816 8.26045C11.3402 8.33203 10.5477 8.68547 9.93219 9.26355C9.31671 9.84163 8.91434 10.6105 8.79022 11.4457C8.6661 12.2809 8.8275 13.1336 9.24828 13.8657C9.66907 14.5978 10.3246 15.1664 11.1088 15.4795C11.893 15.7927 12.7599 15.832 13.5692 15.5911C14.3785 15.3503 15.0828 14.8433 15.5682 14.1524C16.0535 13.4614 16.2914 12.6268 16.2434 11.7838C16.2379 11.6853 16.2518 11.5867 16.2844 11.4936C16.3169 11.4005 16.3675 11.3147 16.4333 11.2411C16.499 11.1676 16.5786 11.1077 16.6674 11.0649C16.7563 11.022 16.8527 10.9972 16.9512 10.9916C17.1501 10.9804 17.3454 11.0487 17.4939 11.1815C17.5675 11.2472 17.6274 11.3268 17.6702 11.4156C17.713 11.5045 17.7379 11.6009 17.7434 11.6994C17.8118 12.8927 17.471 14.0735 16.7773 15.0468C16.0837 16.0201 15.0786 16.7276 13.9284 17.0523C12.7782 17.377 11.5516 17.2996 10.4514 16.8327C9.35111 16.3659 8.4431 15.5376 7.87738 14.4848C7.31166 13.4319 7.1221 12.2176 7.34004 11.0425C7.55798 9.86731 8.17037 8.8017 9.07599 8.02174C9.98161 7.24179 11.1262 6.79419 12.3207 6.75291C13.5152 6.71164 14.688 7.07917 15.6453 7.79475L17.7781 5.66194C16.2151 4.36424 14.2278 3.68978 12.1978 3.76807C10.1678 3.84636 8.23832 4.6719 6.77991 6.08612C5.32151 7.50035 4.43702 9.40353 4.29634 11.4301C4.15565 13.4568 4.76869 15.4639 6.0177 17.0661C7.26671 18.6682 9.06362 19.7525 11.0633 20.1105C13.063 20.4685 15.1245 20.0751 16.8518 19.0058C18.5791 17.9365 19.8505 16.2668 20.4217 14.3173C20.9929 12.3677 20.8237 10.2759 19.9465 8.4435C19.8608 8.26398 19.8498 8.05774 19.9161 7.87014C19.9824 7.68255 20.1205 7.52897 20.3 7.44319C20.4795 7.3574 20.6857 7.34645 20.8733 7.41273C21.0609 7.47902 21.2145 7.61711 21.3003 7.79662Z" fill="white"/>
</svg>
