<svg width="25" height="24" viewBox="0 0 25 24" fill="none" xmlns="http://www.w3.org/2000/svg">
<path d="M21.3003 7.79662C22.3411 9.97331 22.5386 12.4584 21.8549 14.7722C21.1712 17.0859 19.6546 19.0645 17.5979 20.3258C15.5412 21.5872 13.0901 22.042 10.7178 21.6025C8.34546 21.163 6.22002 19.8603 4.75168 17.9459C3.28334 16.0314 2.57619 13.6409 2.76671 11.2358C2.95724 8.83061 4.03193 6.58127 5.78337 4.92187C7.53481 3.26248 9.83884 2.31067 12.2508 2.25014C14.6627 2.18962 17.0116 3.02467 18.8441 4.59412L20.9694 2.46787C21.1101 2.32714 21.301 2.24808 21.5 2.24808C21.699 2.24808 21.8899 2.32714 22.0306 2.46787C22.1714 2.6086 22.2504 2.79948 22.2504 2.9985C22.2504 3.19752 22.1714 3.38839 22.0306 3.52912L16.2125 9.34819L12.6772 12.8835L10.4319 15.1288C11.0124 15.5128 11.6882 15.7276 12.3839 15.7492C13.0795 15.7709 13.7674 15.5986 14.3707 15.2515C14.9739 14.9044 15.4687 14.3963 15.7996 13.7841C16.1305 13.1718 16.2845 12.4796 16.2444 11.7847C16.2332 11.5858 16.3015 11.3906 16.4342 11.2421C16.567 11.0935 16.7533 11.0037 16.9522 10.9926C17.1511 10.9814 17.3463 11.0497 17.4949 11.1824C17.6434 11.3151 17.7332 11.5015 17.7444 11.7004C17.8049 12.7624 17.5413 13.8177 16.9887 14.7266C16.436 15.6355 15.6203 16.355 14.6496 16.79C13.6788 17.2249 12.5989 17.3548 11.5527 17.1622C10.5066 16.9697 9.54356 16.464 8.79125 15.7119C7.85561 14.7728 7.30989 13.5144 7.26368 12.1896C7.21747 10.8647 7.67419 9.57138 8.54213 8.56933C9.41007 7.56727 10.625 6.93067 11.9429 6.78734C13.2608 6.64401 14.5841 7.00457 15.6472 7.79662L17.7781 5.66194C16.2151 4.36424 14.2278 3.68978 12.1978 3.76807C10.1678 3.84636 8.23833 4.6719 6.77993 6.08612C5.32152 7.50035 4.43704 9.40353 4.29635 11.4301C4.15567 13.4568 4.7687 15.4639 6.01771 17.0661C7.26672 18.6682 9.06364 19.7525 11.0633 20.1105C13.063 20.4685 15.1245 20.0751 16.8518 19.0058C18.5791 17.9365 19.8505 16.2668 20.4217 14.3173C20.9929 12.3677 20.8237 10.2759 19.9466 8.4435C19.8608 8.26398 19.8498 8.05774 19.9161 7.87014C19.9824 7.68255 20.1205 7.52897 20.3 7.44319C20.4795 7.3574 20.6858 7.34645 20.8734 7.41273C21.061 7.47902 21.2145 7.61711 21.3003 7.79662Z" fill="white"/>
</svg>
