<svg width="25" height="24" viewBox="0 0 25 24" fill="none" xmlns="http://www.w3.org/2000/svg">
<path d="M20.35 6H5.35C5.15109 6 4.96032 5.92098 4.81967 5.78033C4.67902 5.63968 4.6 5.44891 4.6 5.25C4.6 5.05109 4.67902 4.86032 4.81967 4.71967C4.96032 4.57902 5.15109 4.5 5.35 4.5H18.1C18.2989 4.5 18.4897 4.42098 18.6303 4.28033C18.771 4.13968 18.85 3.94891 18.85 3.75C18.85 3.55109 18.771 3.36032 18.6303 3.21967C18.4897 3.07902 18.2989 3 18.1 3H5.35C4.75326 3 4.18097 3.23705 3.75901 3.65901C3.33705 4.08097 3.1 4.65326 3.1 5.25V17.25C3.1 17.8467 3.33705 18.419 3.75901 18.841C4.18097 19.2629 4.75326 19.5 5.35 19.5H20.35C20.7478 19.5 21.1294 19.342 21.4107 19.0607C21.692 18.7794 21.85 18.3978 21.85 18V7.5C21.85 7.10218 21.692 6.72064 21.4107 6.43934C21.1294 6.15804 20.7478 6 20.35 6ZM20.35 18H5.35C5.15109 18 4.96032 17.921 4.81967 17.7803C4.67902 17.6397 4.6 17.4489 4.6 17.25V7.37156C4.84082 7.45693 5.09449 7.50037 5.35 7.5H20.35V18ZM15.85 12.375C15.85 12.1525 15.916 11.935 16.0396 11.75C16.1632 11.565 16.3389 11.4208 16.5445 11.3356C16.75 11.2505 16.9762 11.2282 17.1945 11.2716C17.4127 11.315 17.6132 11.4222 17.7705 11.5795C17.9278 11.7368 18.035 11.9373 18.0784 12.1555C18.1218 12.3738 18.0995 12.6 18.0144 12.8055C17.9292 13.0111 17.785 13.1868 17.6 13.3104C17.415 13.434 17.1975 13.5 16.975 13.5C16.6766 13.5 16.3905 13.3815 16.1795 13.1705C15.9685 12.9595 15.85 12.6734 15.85 12.375Z" fill="white"/>
</svg>
