<svg width="25" height="24" viewBox="0 0 25 24" fill="none" xmlns="http://www.w3.org/2000/svg">
<path d="M20.35 6H5.34998C5.15107 6 4.96031 5.92098 4.81965 5.78033C4.679 5.63968 4.59998 5.44891 4.59998 5.25C4.59998 5.05109 4.679 4.86032 4.81965 4.71967C4.96031 4.57902 5.15107 4.5 5.34998 4.5H18.1C18.2989 4.5 18.4897 4.42098 18.6303 4.28033C18.771 4.13968 18.85 3.94891 18.85 3.75C18.85 3.55109 18.771 3.36032 18.6303 3.21967C18.4897 3.07902 18.2989 3 18.1 3H5.34998C4.75325 3 4.18095 3.23705 3.75899 3.65901C3.33704 4.08097 3.09998 4.65326 3.09998 5.25V17.25C3.09998 17.8467 3.33704 18.419 3.75899 18.841C4.18095 19.2629 4.75325 19.5 5.34998 19.5H20.35C20.7478 19.5 21.1293 19.342 21.4106 19.0607C21.6919 18.7794 21.85 18.3978 21.85 18V7.5C21.85 7.10218 21.6919 6.72064 21.4106 6.43934C21.1293 6.15804 20.7478 6 20.35 6ZM16.975 13.5C16.7525 13.5 16.535 13.434 16.35 13.3104C16.165 13.1868 16.0208 13.0111 15.9356 12.8055C15.8505 12.6 15.8282 12.3738 15.8716 12.1555C15.915 11.9373 16.0222 11.7368 16.1795 11.5795C16.3368 11.4222 16.5373 11.315 16.7555 11.2716C16.9737 11.2282 17.1999 11.2505 17.4055 11.3356C17.6111 11.4208 17.7868 11.565 17.9104 11.75C18.034 11.935 18.1 12.1525 18.1 12.375C18.1 12.6734 17.9815 12.9595 17.7705 13.1705C17.5595 13.3815 17.2734 13.5 16.975 13.5Z" fill="white"/>
</svg>
